<svg width="32" height="32" viewBox="0 0 32 32" fill="none" xmlns="http://www.w3.org/2000/svg">
<path d="M26.6666 26.6666V7.70392C26.6666 6.39459 25.6053 5.33325 24.2959 5.33325H7.70392C6.39459 5.33325 5.33325 6.39459 5.33325 7.70392V21.9266C5.33325 23.2359 6.39459 24.2973 7.70392 24.2973H22.2226L26.6666 26.6666Z" stroke="#0A0A0A" stroke-width="1.333" stroke-linecap="round" stroke-linejoin="round"/>
<path d="M10.9028 14.764C10.9654 14.8266 11.0005 14.9115 11.0005 15C11.0005 15.0885 10.9654 15.1734 10.9028 15.236C10.8718 15.267 10.835 15.2916 10.7945 15.3084C10.754 15.3251 10.7106 15.3338 10.6668 15.3338C10.5782 15.3338 10.4934 15.2986 10.4308 15.236C10.3682 15.1734 10.333 15.0885 10.333 15C10.333 14.9115 10.3682 14.8266 10.4308 14.764C10.4934 14.7014 10.5782 14.6663 10.6668 14.6663C10.7553 14.6663 10.8402 14.7014 10.9028 14.764" stroke="#0A0A0A" stroke-width="1.5" stroke-linecap="round" stroke-linejoin="round"/>
<path d="M16.5698 14.764C16.6323 14.8266 16.6675 14.9115 16.6675 15C16.6675 15.0885 16.6323 15.1734 16.5698 15.236C16.5388 15.267 16.502 15.2916 16.4615 15.3084C16.421 15.3251 16.3776 15.3338 16.3338 15.3338C16.2452 15.3338 16.1603 15.2986 16.0978 15.236C16.0352 15.1734 16 15.0885 16 15C16 14.9115 16.0352 14.8266 16.0978 14.764C16.1603 14.7014 16.2452 14.6663 16.3338 14.6663C16.4223 14.6663 16.5072 14.7014 16.5698 14.764" stroke="#0A0A0A" stroke-width="1.5" stroke-linecap="round" stroke-linejoin="round"/>
<path d="M21.903 14.764C21.9656 14.8266 22.0008 14.9115 22.0008 15C22.0008 15.0885 21.9656 15.1734 21.903 15.236C21.872 15.267 21.8352 15.2916 21.7947 15.3084C21.7542 15.3251 21.7108 15.3338 21.667 15.3338C21.5785 15.3338 21.4936 15.2986 21.431 15.236C21.3684 15.1734 21.3333 15.0885 21.3333 15C21.3333 14.9115 21.3684 14.8266 21.431 14.764C21.4936 14.7014 21.5785 14.6663 21.667 14.6663C21.7555 14.6663 21.8404 14.7014 21.903 14.764" stroke="#0A0A0A" stroke-width="1.5" stroke-linecap="round" stroke-linejoin="round"/>
</svg>
