<svg width="86" height="30" viewBox="0 0 86 30" fill="none" xmlns="http://www.w3.org/2000/svg">
<path d="M18.2656 9.51788C15.3923 8.6499 13.2822 8.21591 11.9353 8.21591C10.6184 8.21591 9.7055 8.79955 9.19668 9.96684C8.71779 11.1341 8.47835 12.9898 8.47835 15.5339C8.47835 18.0481 8.70283 19.8888 9.15178 21.0561C9.63067 22.1934 10.5884 22.7621 12.0251 22.7621C12.4441 22.7621 13.2523 22.6424 14.4495 22.4029V18.9909H12.4292V13.6932H21.0042V29.0924H15.7066L14.9882 27.6557H14.8086C14.2998 28.0748 13.8958 28.389 13.5965 28.5985C12.7584 29.2271 11.5762 29.5413 10.0497 29.5413C3.79424 29.5413 0.666504 24.8123 0.666504 15.3543C0.666504 10.6253 1.48959 7.01869 3.13577 4.53446C4.78194 2.0203 7.55051 0.763224 11.4415 0.763224C14.5542 0.763224 17.233 1.24211 19.4778 2.19989L18.2656 9.51788Z" fill="#0A0A0A"/>
<path d="M33.1061 13.4687C32.3279 13.4687 31.8191 13.7381 31.5796 14.2768C31.3402 14.7856 31.2205 15.5788 31.2205 16.6563H35.1264V15.5788C35.1264 14.1721 34.4529 13.4687 33.1061 13.4687ZM33.2857 7.04862C36.3685 7.04862 38.5684 7.79688 39.8853 9.2934C41.2322 10.76 41.9056 12.8701 41.9056 15.6237C41.9056 15.9829 41.8009 17.5991 41.5914 20.4724H31.3551C31.3551 22.7172 32.3877 23.8396 34.4529 23.8396C35.4407 23.8396 37.3712 23.4954 40.2445 22.807L40.873 28.3741C38.3589 29.1523 35.8447 29.5413 33.3306 29.5413C30.2477 29.5413 27.8832 28.5387 26.237 26.5333C24.5909 24.4981 23.7678 21.7445 23.7678 18.2725C23.7678 10.7899 26.9404 7.04862 33.2857 7.04862Z" fill="#0A0A0A"/>
<path d="M51.4856 9.15871C53.1318 7.75198 54.9426 7.04862 56.918 7.04862C58.8934 7.04862 60.2702 7.51254 61.0484 8.44038C61.8565 9.3383 62.2606 10.7001 62.2606 12.5259V29.0924H54.6283V15.0849C54.6283 14.3367 54.2991 13.9626 53.6406 13.9626C52.8025 13.9626 52.0992 14.1721 51.5305 14.5911V29.0924H43.988V7.58737H50.8571L51.306 9.15871H51.4856Z" fill="#0A0A0A"/>
<path d="M72.0387 0C73.8944 0 75.8399 0.0897911 77.8751 0.269373L77.2466 6.82414C75.8997 6.67449 74.912 6.59966 74.2835 6.59966C73.6849 6.59966 73.3856 6.86904 73.3856 7.40778V8.21591H77.067L76.7078 13.783H73.4753V29.0924H65.9778V13.783H64.0024V8.21591H65.9778V5.97112C65.9778 1.99037 67.9981 0 72.0387 0Z" fill="#0A0A0A"/>
<path d="M85.6856 29.0924H78.2778V7.81184H85.6856V29.0924ZM78.8614 6.10581C78.2329 5.56706 77.9186 4.69908 77.9186 3.50186C77.9186 2.30464 78.2329 1.4217 78.8614 0.853017C79.49 0.284339 80.5226 0 81.9592 0C83.3959 0 84.4285 0.284339 85.057 0.853017C85.6856 1.4217 85.9998 2.30464 85.9998 3.50186C85.9998 4.66915 85.6856 5.53713 85.057 6.10581C84.4285 6.64456 83.3959 6.91393 81.9592 6.91393C80.5226 6.91393 79.49 6.64456 78.8614 6.10581Z" fill="#0A0A0A"/>
</svg>
